Complete name : Two Sex Porn Hentai Manga Anime=MTR=
Format : AVI
Format/Info : Audio Video Interleave
File size : 18.8 MiB
Duration : 5mn 0s
Overall bit rate : 526 Kbps
Video
ID : 0
Format : Indeo 4
Codec ID : IV50
Codec ID/Info : Intel Indeo Video 5.0 Wavelet
Duration : 5mn 0s
Bit rate : 432 Kbps
Width : 320 pixels
Height : 240 pixels
Display aspect ratio : 4:3
Frame rate : 15.000 fps
Bits/(Pixel*Frame) : 0.375
Stream size : 15.5 MiB (82%)
Title : ????????
Audio
ID : 1
Format : PCM
Format settings, Sign : Unsigned
Codec ID : 1
Codec ID/Hint : Microsoft
Duration : 5mn 0s
Bit rate mode : Constant
Bit rate : 88.2 Kbps
Channel(s) : 1 channel
Sampling rate : 11.025 KHz
Bit depth : 8 bits
Stream size : 3.15 MiB (17%)
Interleave, duration : 67 ms (1.00 video frame)